<svg xmlns:dc="http://purl.org/dc/elements/1.1/" xmlns:cc="http://creativecommons.org/ns#" xmlns:rdf="http://www.w3.org/1999/02/22-rdf-syntax-ns#" xmlns:svg="http://www.w3.org/2000/svg" xmlns="http://www.w3.org/2000/svg" xmlns:sodipodi="http://sodipodi.sourceforge.net/DTD/sodipodi-0.dtd" xmlns:inkscape="http://www.inkscape.org/namespaces/inkscape" version="1.1" inkscape:version="0.48.3.1 r9886" width="1792" height="1792" sodipodi:docname="spinner_font_awesome.svg" style=""><rect id="backgroundrect" width="100%" height="100%" x="0" y="0" fill="none" stroke="none"/>
  <metadata id="metadata3035">
    <rdf:RDF>
      <cc:Work rdf:about="">
        <dc:format>image/svg+xml</dc:format>
        <dc:type rdf:resource="http://purl.org/dc/dcmitype/StillImage"/>
      </cc:Work>
    </rdf:RDF>
  </metadata>
  <defs id="defs3033"/>
  <sodipodi:namedview pagecolor="#ffffff" bordercolor="#666666" borderopacity="1" objecttolerance="10" gridtolerance="10" guidetolerance="10" inkscape:pageopacity="0" inkscape:pageshadow="2" inkscape:window-width="640" inkscape:window-height="480" id="namedview3031" showgrid="false" inkscape:zoom="0.13169643" inkscape:cx="896" inkscape:cy="896" inkscape:window-x="0" inkscape:window-y="25" inkscape:window-maximized="0" inkscape:current-layer="svg3025"/>
  
<g class="currentLayer" style=""><title>Layer 1</title><g id="g3027" class="selected" fill="#ffffff" fill-opacity="1">
    <path d="M628.9201007473755,1340.939437524414 Q628.9201007473755,1400.939437524414 586.4201007473755,1442.939437524414 Q543.9201007473755,1484.939437524414 484.9201007473755,1484.939437524414 q-60,0 -102,-42 q-42,-42 -42,-102 q0,-60 42,-102 q42,-42 102,-42 q59,0 101.5,42 Q628.9201007473755,1280.939437524414 628.9201007473755,1340.939437524414 zM1060.9201007473755,1532.939437524414 Q1060.9201007473755,1585.939437524414 1023.4201007473755,1623.439437524414 Q985.9201007473755,1660.939437524414 932.9201007473755,1660.939437524414 Q879.9201007473755,1660.939437524414 842.4201007473755,1623.439437524414 Q804.9201007473755,1585.939437524414 804.9201007473755,1532.939437524414 Q804.9201007473755,1479.939437524414 842.4201007473755,1442.439437524414 Q879.9201007473755,1404.939437524414 932.9201007473755,1404.939437524414 Q985.9201007473755,1404.939437524414 1023.4201007473755,1442.439437524414 Q1060.9201007473755,1479.939437524414 1060.9201007473755,1532.939437524414 zM452.9201007473755,892.939437524414 Q452.9201007473755,958.939437524414 405.9201007473755,1005.939437524414 Q358.9201007473755,1052.939437524414 292.9201007473755,1052.939437524414 Q226.9201007473755,1052.939437524414 179.9201007473755,1005.939437524414 Q132.9201007473755,958.939437524414 132.9201007473755,892.939437524414 q0,-66 47,-113 q47,-47 113,-47 q66,0 113,47 q47,47 47,113 zM1492.9201007473755,1340.939437524414 q0,46 -33,79 q-33,33 -79,33 q-46,0 -79,-33 q-33,-33 -33,-79 q0,-46 33,-79 q33,-33 79,-33 q46,0 79,33 q33,33 33,79 zM660.9201007473755,444.93943752441396 Q660.9201007473755,517.939437524414 609.4201007473755,569.439437524414 Q557.9201007473755,620.939437524414 484.9201007473755,620.939437524414 Q411.9201007473755,620.939437524414 360.4201007473755,569.439437524414 Q308.9201007473755,517.939437524414 308.9201007473755,444.93943752441396 q0,-73 51.5,-124.5 q51.5,-51.5 124.5,-51.5 q73,0 124.5,51.5 Q660.9201007473755,371.93943752441396 660.9201007473755,444.93943752441396 zm464,-192 q0,80 -56,136 q-56,56 -136,56 q-80,0 -136,-56 q-56,-56 -56,-136 q0,-80 56,-136 q56,-56 136,-56 q80,0 136,56 q56,56 56,136 zm544,640 q0,40 -28,68 q-28,28 -68,28 q-40,0 -68,-28 q-28,-28 -28,-68 q0,-40 28,-68 q28,-28 68,-28 q40,0 68,28 q28,28 28,68 zm-208,-448 q0,33 -23.5,56.5 q-23.5,23.5 -56.5,23.5 q-33,0 -56.5,-23.5 q-23.5,-23.5 -23.5,-56.5 q0,-33 23.5,-56.5 q23.5,-23.5 56.5,-23.5 q33,0 56.5,23.5 q23.5,23.5 23.5,56.5 z" id="path3029" inkscape:connector-curvature="0" style="" stroke-width="0" fill="#ffffff" fill-opacity="1"/>
  </g></g></svg>